<svg xmlns="http://www.w3.org/2000/svg" viewBox="0 0 32 32" role="img" aria-label="Cancha de fºtbol">
  <rect width="32" height="32" rx="5" fill="#0b3d2e"/>
  <rect x="2.5" y="2.5" width="27" height="27" rx="2" fill="#145c3f" stroke="#f5f5f0" stroke-width="0.7"/>
  <line x1="2.5" y1="16" x2="29.5" y2="16" stroke="#f5f5f0" stroke-width="0.55" opacity="0.85"/>
  <circle cx="16" cy="16" r="5.5" fill="none" stroke="#f5f5f0" stroke-width="0.65"/>
  <circle cx="16" cy="16" r="3.2" fill="#f5f5f0" stroke="#1a1a1a" stroke-width="0.35"/>
  <path fill="#1a1a1a" d="M16 14.1 L17.1 15.1 16.8 16.4 15.2 16.4 14.9 15.1 Z"/>
  <path fill="#1a1a1a" d="M14.2 15.6 L14.8 15.1 15.3 15.9 14.9 16.5 14.1 16.2 Z"/>
  <path fill="#1a1a1a" d="M17.8 15.6 L18.4 16.2 17.6 16.5 17.2 15.9 17.7 15.1 Z"/>
  <path fill="#1a1a1a" d="M15.1 17.4 L15.8 16.9 16 17.6 16.2 16.9 16.9 17.4 16.4 18.1 15.6 18.1 Z"/>
</svg>
